<svg xmlns="http://www.w3.org/2000/svg" version="1.1" xmlns:xlink="http://www.w3.org/1999/xlink" width="1000" height="1000"><metadata><rdf:RDF xmlns:rdf="http://www.w3.org/1999/02/22-rdf-syntax-ns#" xmlns:dc="http://purl.org/dc/elements/1.1/"><rdf:Description><dc:creator>RealFaviconGenerator</dc:creator><dc:source>https://realfavicongenerator.net</dc:source></rdf:Description></rdf:RDF></metadata><g clip-path="url(#SvgjsClipPath1001)"><rect width="1000" height="1000" fill="#ffffff"></rect><g transform="matrix(3.5,0,0,3.5,150,150)"><svg xmlns="http://www.w3.org/2000/svg" version="1.1" xmlns:xlink="http://www.w3.org/1999/xlink" viewBox="0 0 200 200" width="200" height="200"><rect width="200" height="200" fill="url('#gradient')"></rect><defs><linearGradient id="gradient" gradientTransform="rotate(45 0.5 0.5)"><stop offset="0%" stop-color="#0ab5fa"></stop><stop offset="100%" stop-color="#fbf2d5"></stop></linearGradient><clipPath id="SvgjsClipPath1001"><rect width="1000" height="1000" x="0" y="0" rx="350" ry="350"></rect></clipPath></defs><g><g fill="#0a4e91" transform="matrix(8.553132250580047,0,0,8.553132250580047,1.895849908864136,146.78437822434853)" stroke="#0c325a" stroke-width="0.2"><path d="M10.73-5.36L10.73-5.20Q10.73-2.60 9.66-1.20Q8.58 0.20 6.63 0.20L6.63 0.20Q5.02 0.20 4.03-1.08L4.03-1.08L3.90 0L0.95 0L0.95-15L4.24-15L4.24-9.72Q5.16-10.76 6.61-10.76L6.61-10.76Q8.58-10.76 9.66-9.35Q10.73-7.93 10.73-5.36L10.73-5.36ZM7.43-5.40L7.43-5.40Q7.43-6.92 7.03-7.57Q6.62-8.22 5.78-8.22L5.78-8.22Q4.67-8.22 4.24-7.37L4.24-7.37L4.24-3.17Q4.66-2.33 5.80-2.33L5.80-2.33Q6.96-2.33 7.28-3.47L7.28-3.47Q7.43-4.02 7.43-5.40ZM21.99-5.36L21.99-5.21Q21.99-2.74 20.88-1.27Q19.78 0.20 17.89 0.20L17.89 0.20Q16.44 0.20 15.50-0.87L15.50-0.87L15.50 4.06L12.21 4.06L12.21-10.57L15.28-10.57L15.38-9.59Q16.33-10.76 17.87-10.76L17.87-10.76Q19.82-10.76 20.91-9.32Q21.99-7.88 21.99-5.36L21.99-5.36ZM18.70-5.06L18.70-5.41Q18.70-8.22 17.06-8.22L17.06-8.22Q15.89-8.22 15.50-7.38L15.50-7.38L15.50-3.22Q15.93-2.34 17.08-2.34L17.08-2.34Q18.65-2.34 18.70-5.06L18.70-5.06Z"></path></g></g></svg></g></g></svg>